<svg width="50" height="50" viewBox="0 0 50 50" fill="none" xmlns="http://www.w3.org/2000/svg">
<path d="M41.6667 36.4584C42.4692 36.4588 43.2408 36.7679 43.8216 37.3217C44.4025 37.8755 44.748 38.6316 44.7865 39.4332C44.8251 40.2348 44.5538 41.0205 44.0288 41.6275C43.5038 42.2345 42.7655 42.6163 41.9667 42.6938L41.6667 42.7084H8.33334C7.53081 42.708 6.75919 42.3988 6.17837 41.845C5.59755 41.2912 5.25207 40.5351 5.2135 39.7335C5.17493 38.9319 5.44624 38.1462 5.97121 37.5392C6.49617 36.9322 7.23455 36.5504 8.03334 36.4729L8.33334 36.4584H41.6667ZM41.6667 21.875C42.4955 21.875 43.2903 22.2043 43.8764 22.7903C44.4624 23.3764 44.7917 24.1712 44.7917 25C44.7917 25.8288 44.4624 26.6237 43.8764 27.2097C43.2903 27.7958 42.4955 28.125 41.6667 28.125H8.33334C7.50454 28.125 6.70969 27.7958 6.12363 27.2097C5.53758 26.6237 5.20834 25.8288 5.20834 25C5.20834 24.1712 5.53758 23.3764 6.12363 22.7903C6.70969 22.2043 7.50454 21.875 8.33334 21.875H41.6667ZM41.6667 7.29169C42.4955 7.29169 43.2903 7.62093 43.8764 8.20698C44.4624 8.79303 44.7917 9.58789 44.7917 10.4167C44.7917 11.2455 44.4624 12.0403 43.8764 12.6264C43.2903 13.2124 42.4955 13.5417 41.6667 13.5417H8.33334C7.50454 13.5417 6.70969 13.2124 6.12363 12.6264C5.53758 12.0403 5.20834 11.2455 5.20834 10.4167C5.20834 9.58789 5.53758 8.79303 6.12363 8.20698C6.70969 7.62093 7.50454 7.29169 8.33334 7.29169H41.6667Z" fill="black"/>
</svg>
